<svg id="Layer_1" data-name="Layer 1" xmlns="http://www.w3.org/2000/svg" xmlns:xlink="http://www.w3.org/1999/xlink" viewBox="0 0 404.96 68.96"><defs><linearGradient id="linear-gradient" x1="28.07" y1="22.7" x2="28.07" y2="66.08" gradientUnits="userSpaceOnUse"><stop offset="0" stop-color="#02602c"/><stop offset="0.07" stop-color="#136b2f"/><stop offset="0.28" stop-color="#3e8635"/><stop offset="0.48" stop-color="#609b3a"/><stop offset="0.68" stop-color="#78ab3e"/><stop offset="0.85" stop-color="#87b440"/><stop offset="1" stop-color="#8cb741"/></linearGradient><linearGradient id="linear-gradient-2" x1="20.38" y1="75.21" x2="42.65" y2="65.5" gradientUnits="userSpaceOnUse"><stop offset="0" stop-color="#097778"/><stop offset="0.28" stop-color="#1f9e98"/><stop offset="0.54" stop-color="#31bfb3"/></linearGradient><linearGradient id="linear-gradient-3" x1="45.09" y1="20.59" x2="72.49" y2="84.52" gradientUnits="userSpaceOnUse"><stop offset="0" stop-color="#02a8e2"/><stop offset="0.94" stop-color="#1a57a7"/></linearGradient></defs><title>autodesk</title><path d="M257.59,67.68v-40c9.15.54,18.43-1.76,26.91,3.54,7,4.37,10.32,12.35,8.65,21.15-1.39,7.35-8.45,14.51-16,15.17C270.7,68.13,264.19,67.68,257.59,67.68Zm7.26-33.59V61.51c3.6,0,7.06.42,10.38-.09A13.29,13.29,0,0,0,286.49,47.8c-.13-7-4.5-12.12-11.62-13.16C271.72,34.18,268.48,34.27,264.85,34.09Z" transform="translate(-12.27 -16.15)" style="fill-rule:evenodd"/><path d="M207.43,47.61c.43-11.58,10.12-20.95,21.23-20.54,11.54.43,21.1,10.21,20.49,21.26-.7,12.77-10.1,20.61-21.22,20.46C216.25,68.63,207,58.69,207.43,47.61Zm7.08-.09a14.11,14.11,0,0,0,13.3,14.86c7.57.3,13.92-5.93,14.22-14,.3-7.88-5.73-14.6-13.32-14.84S214.75,39.54,214.51,47.52Z" transform="translate(-12.27 -16.15)" style="fill-rule:evenodd"/><path d="M329.71,61.48v6.39H301.09V27.71h28.62v6.17H308.37V44.35H321.9v6.34H308.29V61.48Z" transform="translate(-12.27 -16.15)" style="fill-rule:evenodd"/><path d="M388.52,46.56l17.93-19.5h-9.24L379.7,45.25V27.09h-6.86v40.2h7V47.13S392.42,60,399,67.32h9.48C402,60.6,394,52.31,388.52,46.56Z" transform="translate(-12.27 -16.15)"/><path d="M109.78,27.06l-6.79.07L85.22,67.58H93l4-9.68h18.78l4.13,9.68h7.68ZM99.57,51.54l6.59-16,6.85,16Z" transform="translate(-12.27 -16.15)"/><polygon points="161.06 17.12 173.92 17.12 173.92 51.28 180.56 51.28 180.56 17.2 191.18 17.2 193.9 10.91 161.06 10.91 161.06 17.12"/><path d="M351.68,44.19c-9.4-2.66-8.32-6.68-7.82-7.81s2.08-3.12,8.1-3.12a22,22,0,0,1,10.23,2.47l2.63-5.33c-.17-.27-5-3.17-13-3.33S336.8,31.48,336.8,37.84s3.85,9.37,11.44,11.57c8.59,2.5,11.22,4.69,11.22,7.86s-1.77,5.49-8,5.49c-5.33,0-11.77-4.2-13.37-5.41l-2.52,5.38c2.07,1.36,9.66,5.69,16.34,5.69,7.56,0,13.9-3.72,14.12-11.42S360.23,46.61,351.68,44.19Z" transform="translate(-12.27 -16.15)"/><path d="M158,51.08a10.08,10.08,0,0,1-20.15,0v-24h-7.47V50.48a17.55,17.55,0,1,0,35.09,0V27.06H158Z" transform="translate(-12.27 -16.15)"/><path d="M417.24,64.79a2.61,2.61,0,1,1-2.6-2.53A2.54,2.54,0,0,1,417.24,64.79Zm-4.56,0a2,2,0,0,0,2,2,1.93,1.93,0,0,0,1.93-2,2,2,0,1,0-3.91,0Zm1.56,1.33h-.59V63.59a4.92,4.92,0,0,1,1-.08,1.67,1.67,0,0,1,.88.18.7.7,0,0,1,.24.56.65.65,0,0,1-.52.59v0a.73.73,0,0,1,.46.62,2,2,0,0,0,.19.63h-.63a2.13,2.13,0,0,1-.21-.62c0-.28-.2-.4-.52-.4h-.28Zm0-1.44h.28c.32,0,.58-.11.58-.37s-.17-.38-.54-.38a1.17,1.17,0,0,0-.32,0Z" transform="translate(-12.27 -16.15)"/><path d="M33.87,16.38a3.17,3.17,0,0,0-2.54,1.24h0L12.61,62.09l0,.17a3.55,3.55,0,0,0,0,2.82l.21.38a4.41,4.41,0,0,0,3.35,2H29.66L43.86,34c-3.6-8.51-6.3-14.88-6.69-15.7A3.4,3.4,0,0,0,33.87,16.38Z" transform="translate(-12.27 -16.15)" style="fill:url(#linear-gradient)"/><path d="M16.13,67.41a4.41,4.41,0,0,1-3.35-2l5.28,9.77,4.27,7.92A4.56,4.56,0,0,0,25.65,85c2.46.17,7-2.11,7.9-2.63s21.58-13.28,24.35-15H16.13Z" transform="translate(-12.27 -16.15)" style="fill:url(#linear-gradient-2)"/><path d="M12.78,65.46l-.21-.38A2.82,2.82,0,0,0,12.78,65.46Z" transform="translate(-12.27 -16.15)"/><polygon points="19.04 1.49 19.04 1.48 19.04 1.48 19.04 1.49"/><polygon points="19.04 1.48 19.04 1.48 19.04 1.48 19.04 1.48"/><path d="M31.33,17.62h0Z" transform="translate(-12.27 -16.15)"/><path d="M56.42,17.89a2.78,2.78,0,0,0-2.88-1.71l-7.14,0c-5.47,0-12.15,0-12.6,0a3.46,3.46,0,0,0-2.47,1.44,3.17,3.17,0,0,1,2.54-1.24,3.4,3.4,0,0,1,3.3,1.92c.39.82,3.09,7.19,6.69,15.7,7.85,18.57,19.93,47.37,21.5,51.11H84.78Z" transform="translate(-12.27 -16.15)" style="fill:url(#linear-gradient-3)"/></svg>