<svg id="Layer_1" data-name="Layer 1" xmlns="http://www.w3.org/2000/svg" viewBox="0 0 843.7 445"><title>cisco</title><path d="M1153.83,407.2l-.14,33.66,2.46.42a206.18,206.18,0,0,0,23.35,3,141,141,0,0,0,20.65.41,86.28,86.28,0,0,0,19.37-3.66,53.56,53.56,0,0,0,20.1-10.71,40.53,40.53,0,0,0,11.7-16.78,46.14,46.14,0,0,0-.23-33.78,37.79,37.79,0,0,0-10.5-14.54,43.61,43.61,0,0,0-15.39-9l-25.38-9.42a13.55,13.55,0,0,1-6.93-6.6,8.63,8.63,0,0,1,.28-7.7,9.92,9.92,0,0,1,1.69-2.28,13.2,13.2,0,0,1,2.6-2.05,13,13,0,0,1,1.15-.65,26.8,26.8,0,0,1,9.05-2.64,52.88,52.88,0,0,1,16.18.17,138.72,138.72,0,0,1,18.77,3.36l1.31.29V297.68l-2.42-.52a164.39,164.39,0,0,0-19.09-3.39,97.63,97.63,0,0,0-25.1-.11,54.26,54.26,0,0,0-28.9,11.62,38.32,38.32,0,0,0-12.34,17,46.78,46.78,0,0,0,0,31.64,35.52,35.52,0,0,0,8.88,13.39,50.55,50.55,0,0,0,11.48,8.32,78.83,78.83,0,0,0,17.47,6.86c2,.6,4,1.24,6,1.9l3,1.11.86.34a22.42,22.42,0,0,1,8,4.91,14.05,14.05,0,0,1,3.56,5.33,11.62,11.62,0,0,1,0,5.65,12,12,0,0,1-5.81,7,28.91,28.91,0,0,1-9.68,3,70.39,70.39,0,0,1-15,.75,169.82,169.82,0,0,1-19.58-2.61q-5.07-1-10.09-2.36l-1.25-.32" transform="translate(-828.15)" style="fill:#c82027"/><path d="M1015.84,439.64V400.56l-.76.34a72.53,72.53,0,0,1-28.17,7.15,41.43,41.43,0,0,1-28.35-8.36,36.34,36.34,0,0,1-12.35-17.53,42.29,42.29,0,0,1-.83-23.44A36,36,0,0,1,958,338.67a37.75,37.75,0,0,1,19.75-8.51,65,65,0,0,1,37.3,7l.84.43v-39.3l-1.78-.48a99.9,99.9,0,0,0-35.56-4.65,82.34,82.34,0,0,0-31.76,7.26,72.68,72.68,0,0,0-26,20.1,78.22,78.22,0,0,0-1.43,95.15,74.62,74.62,0,0,0,41.35,26.59,97,97,0,0,0,52.31-1.83l2.87-.79" transform="translate(-828.15)" style="fill:#c82027"/><polyline points="275.58 442.22 275.58 295.66 238.63 295.66 238.63 442.22 275.58 442.22" style="fill:#c82027"/><polyline points="822.53 425.2 822.53 422.98 806.89 422.98 806.89 425.2 813.39 425.2 813.39 442.22 816.02 442.22 816.02 425.2 822.53 425.2" style="fill:#c82027"/><polyline points="824.05 442.22 826.54 442.22 826.54 426.86 826.87 426.86 832.49 442.22 835 442.22 841.07 426.12 841.07 442.22 843.7 442.22 843.7 422.98 839.64 422.98 833.94 438.83 828.17 422.98 824.05 422.98 824.05 442.22" style="fill:#c82027"/><path d="M828.15,177.87a18.33,18.33,0,0,0,36.55,0V137.25a18.29,18.29,0,0,0-36.55,0v40.62" transform="translate(-828.15)" style="fill:#12383d"/><path d="M929.32,177.87a18.33,18.33,0,0,0,36.55,0V86.81a18.29,18.29,0,0,0-36.55,0v91.06" transform="translate(-828.15)" style="fill:#12383d"/><path d="M1030,214.55a18.33,18.33,0,0,0,36.55,0v-197a18.29,18.29,0,0,0-36.55,0v197" transform="translate(-828.15)" style="fill:#12383d"/><path d="M1131.1,177.87a18.33,18.33,0,0,0,36.55,0V86.81a18.29,18.29,0,0,0-36.55,0v91.06" transform="translate(-828.15)" style="fill:#12383d"/><path d="M1231.81,177.87a18.33,18.33,0,0,0,36.55,0V137.25a18.29,18.29,0,0,0-36.55,0v40.62" transform="translate(-828.15)" style="fill:#12383d"/><path d="M1332.89,177.87a18.33,18.33,0,0,0,36.55,0V86.81a18.29,18.29,0,0,0-36.55,0v91.06" transform="translate(-828.15)" style="fill:#12383d"/><path d="M1433.55,214.55a18.33,18.33,0,0,0,36.55,0v-197a18.29,18.29,0,0,0-36.55,0v197" transform="translate(-828.15)" style="fill:#12383d"/><path d="M1534.55,177.87a18.33,18.33,0,0,0,36.55,0V86.81a18.29,18.29,0,0,0-36.55,0v91.06" transform="translate(-828.15)" style="fill:#12383d"/><path d="M1635.3,177.87a18.33,18.33,0,0,0,36.55,0V137.25a18.29,18.29,0,0,0-36.55,0v40.62" transform="translate(-828.15)" style="fill:#12383d"/><path d="M1402,439.64V400.56l-.76.34a72.53,72.53,0,0,1-28.17,7.15,41.43,41.43,0,0,1-28.35-8.36,36.25,36.25,0,0,1-12.34-17.53,42.2,42.2,0,0,1-.84-23.44,36,36,0,0,1,12.57-20.05,37.75,37.75,0,0,1,19.75-8.51,65,65,0,0,1,37.3,7l.84.43v-39.3l-1.78-.48a99.9,99.9,0,0,0-35.56-4.65,82.34,82.34,0,0,0-31.76,7.26,72.68,72.68,0,0,0-26,20.1,78.21,78.21,0,0,0-1.42,95.15,74.59,74.59,0,0,0,41.34,26.59,97,97,0,0,0,52.31-1.83l2.87-.79" transform="translate(-828.15)" style="fill:#c82027"/><path d="M1440.91,369a77.12,77.12,0,0,0,93.77,74.1,75.22,75.22,0,0,0,24.66-138.5A77.61,77.61,0,0,0,1440.91,369m53.65-30.06a38.54,38.54,0,1,1-14.25,25.82,38.56,38.56,0,0,1,14.25-25.82" transform="translate(-828.15)" style="fill:#c82027"/></svg>