<svg id="Layer_1" data-name="Layer 1" xmlns="http://www.w3.org/2000/svg" viewBox="0 0 66.35 66.35"><title>dell-seeklogo</title><path d="M299.73,174.6a33.18,33.18,0,1,1-33.17,33.18,33.19,33.19,0,0,1,33.17-33.18m0,3.59a29.58,29.58,0,1,0,20.92,8.66,29.51,29.51,0,0,0-20.92-8.66" transform="translate(-266.56 -174.6)" style="fill:#0087cc"/><path d="M320.06,210.48h5v4.17h-9.94V200.38h5Zm-16.24-.79-8.19,6.45-7.49-5.89a7.23,7.23,0,0,1-6.7,4.4H275V200.38h6.4a7.16,7.16,0,0,1,6.69,4.41l7.5-5.89,2.77,2.18-6.86,5.4,1.32,1,6.86-5.39,2.77,2.18-6.86,5.39,1.32,1,6.87-5.39v-5h5v10.1h5v4.17h-9.94ZM284,207.52a2.86,2.86,0,0,0-3.1-3h-1.11v6.07h1.08a2.85,2.85,0,0,0,3.13-3" transform="translate(-266.56 -174.6)" style="fill:#0087cc"/></svg>