<svg id="Layer_1" data-name="Layer 1" xmlns="http://www.w3.org/2000/svg" viewBox="0 0 612.32 73.49"><title>fortinet</title><path d="M114.78,241.43c.51,0,1,.06,1.54.06h74.27v15.32H131.68v11.61h50.7v14.8H131.66v26.93a7.36,7.36,0,0,1-.89.11H115.36a4,4,0,0,1-.58-.08Z" transform="translate(-114.78 -240.72)" style="fill-rule:evenodd"/><path d="M260.81,240.72l.06,17.52c0,.6-.25.88-.85.85-.16,0-.31,0-.47,0-8.17,0-16.35,0-24.51,0-1.14,0-1.48-.31-1.47-1.47,0-5.64,0-11.28,0-16.93Z" transform="translate(-114.78 -240.72)" style="fill:#ee3026;fill-rule:evenodd"/><path d="M285.7,240.72a36.1,36.1,0,0,1,5.06,3.56c3.68,3.7,5.33,8.36,5.74,13.51.07,1-.23,1.35-1.24,1.35q-12.72,0-25.45,0c-1,0-1.36-.32-1.34-1.37,0-5.21,0-10.42,0-15.63,0-.47-.05-.94-.08-1.41Z" transform="translate(-114.78 -240.72)" style="fill:#ee3026;fill-rule:evenodd"/><path d="M226,240.72c0,5.61-.06,11.22,0,16.83,0,1.17-.28,1.57-1.5,1.57-8.41-.05-16.82,0-25.24,0-.54,0-1.09.1-1.17-.77-.52-5.77,4.29-14.35,9.51-16.84l1.59-.76Z" transform="translate(-114.78 -240.72)" style="fill:#ee3026;fill-rule:evenodd"/><path d="M717.86,314.21a9.77,9.77,0,0,1-5.41-2.88,8.57,8.57,0,0,1-1.1-9.5,8.35,8.35,0,0,1,15.53,2.35c.06.27.15.52.23.79v1.65c-.08.3-.17.6-.24.9a8.15,8.15,0,0,1-4.89,5.92,20.38,20.38,0,0,1-2.7.77Zm.91-15.69a7.23,7.23,0,0,0-7.37,7.07,7.34,7.34,0,0,0,7.29,7.57,7.46,7.46,0,0,0,7.36-7.31A7.34,7.34,0,0,0,718.77,298.52Z" transform="translate(-114.78 -240.72)" style="fill-rule:evenodd"/><path d="M380.15,280a8.05,8.05,0,0,1,4.61,7.5c.17,7.38.09,14.77.12,22.16a3.71,3.71,0,0,1-.08.54H368.59V287.56c0-2.8-1.11-4-3.86-4.16-1.22-.09-2.45-.14-3.67-.14H325.64v26.93H308.87V241.49h1.39q26,0,52,0a40.17,40.17,0,0,1,10.9,1.31c6.69,1.89,11,6.11,11.86,13.07a86.73,86.73,0,0,1,.38,14.05c-.16,3.52-2,6.52-4.46,9.07l-.75.76A1.24,1.24,0,0,0,380.15,280Zm-54.46-11.57c.43,0,.78,0,1.12,0q17.25,0,34.49,0a39.48,39.48,0,0,0,4.49-.24,3.32,3.32,0,0,0,3-3.26c.06-1.53.05-3.08,0-4.62a3.31,3.31,0,0,0-2.76-3.25,14.34,14.34,0,0,0-2.7-.23H327c-.42,0-.83,0-1.26.06Z" transform="translate(-114.78 -240.72)" style="fill-rule:evenodd"/><path d="M583.66,310.19V241.58h67.52v15.21H600.45v11.66H635.7v14.78H600.45v11.7h51v15.26Z" transform="translate(-114.78 -240.72)" style="fill-rule:evenodd"/><path d="M511.85,256.84V310.2H495.06V241.49h1.29q26.49,0,53,0A25.62,25.62,0,0,1,561,244.19c5.82,2.95,8.8,8,10.06,14.15a42.35,42.35,0,0,1,.83,8.34c.08,14.1,0,28.21,0,42.31,0,.38,0,.77-.06,1.21h-16.8v-1.8q0-21.93,0-43.85a20.34,20.34,0,0,0-.52-4.33c-.47-2.06-2.06-3-4-3.36a7,7,0,0,0-1.3-.08H513.07C512.72,256.78,512.37,256.81,511.85,256.84Z" transform="translate(-114.78 -240.72)" style="fill-rule:evenodd"/><path d="M410.17,256.85h-15.8V241.56h62.88v15.26H427v53.37H410.17Z" transform="translate(-114.78 -240.72)" style="fill-rule:evenodd"/><path d="M659.55,256.87V241.58h63v15.23H692.23v53.36h-16.8v-53.3Z" transform="translate(-114.78 -240.72)" style="fill-rule:evenodd"/><path d="M482.38,310.2H465.69V241.58h16.69Z" transform="translate(-114.78 -240.72)" style="fill-rule:evenodd"/><path d="M282.42,285c-4.22,0-8.44,0-12.66,0-.95,0-1.3-.25-1.29-1.26,0-5.33,0-10.65,0-16,0-.88.26-1.16,1.14-1.16q12.9,0,25.8,0c.78,0,1.07.27,1.07,1q0,8.16,0,16.33c0,.85-.37,1.05-1.16,1-4.3,0-8.6,0-12.91,0Z" transform="translate(-114.78 -240.72)" style="fill:#ee3026;fill-rule:evenodd"/><path d="M225.86,266.71v18.21c-.44,0-.82.06-1.21.06-8.41,0-16.82,0-25.23,0-1.13,0-1.4-.34-1.39-1.41q.08-7.87,0-15.75c0-.92.25-1.23,1.2-1.23,8.53,0,17.06,0,25.59,0C225.15,266.63,225.46,266.68,225.86,266.71Z" transform="translate(-114.78 -240.72)" style="fill:#ee3026;fill-rule:evenodd"/><path d="M233.65,310.79V292.73c.45,0,.87-.07,1.29-.07,8.21,0,16.43,0,24.65,0,1.08,0,1.32.36,1.31,1.35,0,5.22,0,10.43,0,15.65,0,.73,0,1.26-1,1.25-8.53,0-17.06,0-25.6,0A5.36,5.36,0,0,1,233.65,310.79Z" transform="translate(-114.78 -240.72)" style="fill:#ee3026;fill-rule:evenodd"/><path d="M268.55,310.88V292.75c.41,0,.78-.09,1.16-.09,8.49,0,17,0,25.48,0,1.06,0,1.41.32,1.32,1.35-.65,6.56-2.91,12.24-8.71,16a5.84,5.84,0,0,1-3.35.92c-4.86,0-9.72,0-14.57,0Z" transform="translate(-114.78 -240.72)" style="fill:#ee3026;fill-rule:evenodd"/><path d="M225.85,292.75V310.8c-.42,0-.83.06-1.25.06-4.46,0-8.94-.17-13.39.06a9.19,9.19,0,0,1-7.31-3.17A21.06,21.06,0,0,1,198.29,296c-.17-1-.2-2.09-.31-3.24Z" transform="translate(-114.78 -240.72)" style="fill:#ee3026;fill-rule:evenodd"/><path d="M716.76,306.32v3.78l-1.13.08V301c1.61,0,3.15,0,4.68,0a2,2,0,0,1,2.13,1.38,2.61,2.61,0,0,1-.51,2.86c-.11.11-.2.23.05.31.3,1.5.59,3,.89,4.51-1,.33-1.42.1-1.51-1-.23-2.55.29-2.93-3.17-2.84C717.74,306.26,717.29,306.29,716.76,306.32Zm.08-1.17c1.16,0,2.19,0,3.2,0a1.41,1.41,0,0,0,1.35-1.51c0-.76-.24-1.4-1-1.47-1.14-.09-2.31,0-3.51,0Z" transform="translate(-114.78 -240.72)" style="fill-rule:evenodd"/></svg>