<svg id="Layer_1" data-name="Layer 1" xmlns="http://www.w3.org/2000/svg" viewBox="0 0 169.01 26.22"><title>furukawa-electric-group-seeklogo</title><path d="M108.18,20.49V18.7c0-.3,0-.55,0-.73s0-.34,0-.45a1.3,1.3,0,0,1,0-.27,3.91,3.91,0,0,0-1.91.38,1.42,1.42,0,0,0-.71,1.28v5.38h0a1.41,1.41,0,0,0,.69,1.07,3.74,3.74,0,0,0,1.91.38,1.3,1.3,0,0,1,0-.27q0-.16,0-.45c0-.19,0-.44,0-.74V20.49Z" transform="translate(0 0.37)" style="fill:#595757"/><path d="M103.46,24.59l-.27-.31-1.71-1.92a2.52,2.52,0,0,0,1.79-.72A2.32,2.32,0,0,0,104,19.9v-.14a2.37,2.37,0,0,0-.74-1.72,2.34,2.34,0,0,0-1.73-.74h-6v6.24h0a2,2,0,0,0,.66,1.7,3.29,3.29,0,0,0,2,.51c0-.08,0-.2,0-.36s0-.34,0-.6,0-.58,0-1V22.36H99l.67.75c.32.37.61.69.86,1l.1.11c.06.06.11.13.16.19l0,0,.17.19h0a6.31,6.31,0,0,0,.59.58,3,3,0,0,0,.71.45,2.53,2.53,0,0,0,.73.19,1.38,1.38,0,0,0,.5,0,2.58,2.58,0,0,0,.4-.1,2.81,2.81,0,0,0,.53-.22,4.58,4.58,0,0,1-.47-.43C103.8,24.92,103.6,24.75,103.46,24.59ZM98.1,21.1V18.56h2.56a.82.82,0,0,1,.58.24,2.12,2.12,0,0,1,.25,1,2.3,2.3,0,0,1-.24,1,.73.73,0,0,1-.58.26Z" transform="translate(0 0.37)" style="fill:#595757"/><path d="M57.61,18.77a.8.8,0,0,1,.58-.24h2.27A1.35,1.35,0,0,0,61.53,18a1.69,1.69,0,0,0,.38-.76H57.3a2.53,2.53,0,0,0-2.45,2.45v3.52A2.36,2.36,0,0,0,55.59,25a2.39,2.39,0,0,0,1.73.74h3.15a1.35,1.35,0,0,0,1.07-.49,1.75,1.75,0,0,0,.38-.76H58.21a.86.86,0,0,1-.82-.82v-1.5h3.09a1.35,1.35,0,0,0,1.07-.49,1.69,1.69,0,0,0,.38-.76H57.4V19.38A.7.7,0,0,1,57.61,18.77Z" transform="translate(0 0.37)" style="fill:#595757"/><path d="M73.45,18.77a.8.8,0,0,1,.58-.24H76.3A1.35,1.35,0,0,0,77.37,18a1.59,1.59,0,0,0,.37-.76H73.13a2.38,2.38,0,0,0-1.71.74,2.35,2.35,0,0,0-.74,1.71v3.52a2.53,2.53,0,0,0,2.46,2.46h3.15a1.35,1.35,0,0,0,1.07-.49,1.64,1.64,0,0,0,.37-.76H74a.77.77,0,0,1-.57-.25.78.78,0,0,1-.25-.57v-1.5h3.09a1.35,1.35,0,0,0,1.07-.49,1.59,1.59,0,0,0,.37-.76H73.2V19.38A.79.79,0,0,1,73.45,18.77Z" transform="translate(0 0.37)" style="fill:#595757"/><path d="M66.61,24.44a.79.79,0,0,1-.58-.25.81.81,0,0,1-.25-.58V20.48h0V18.7c0-.3,0-.55,0-.74s0-.34,0-.45,0-.21,0-.27a4,4,0,0,0-1.92.38,1.39,1.39,0,0,0-.71,1.28v4.33a2.53,2.53,0,0,0,2.45,2.45h2.85a1.35,1.35,0,0,0,1.07-.49c.25-.3.18-.33.38-.76H66.61Z" transform="translate(0 0.37)" style="fill:#595757"/><path d="M81.86,18.77a.8.8,0,0,1,.58-.24h1.94A1.35,1.35,0,0,0,85.45,18a1.69,1.69,0,0,0,.38-.76H81.54a2.53,2.53,0,0,0-2.45,2.45v3.52a2.53,2.53,0,0,0,2.47,2.46h2.83a1.35,1.35,0,0,0,1.07-.49,1.69,1.69,0,0,0,.38-.76h-3.5a.74.74,0,0,1-.46-.24.77.77,0,0,1-.25-.58V19.36A.76.76,0,0,1,81.86,18.77Z" transform="translate(0 0.37)" style="fill:#595757"/><path d="M112.52,18.77a.8.8,0,0,1,.58-.24h2a1.35,1.35,0,0,0,1.07-.49,1.59,1.59,0,0,0,.37-.76H112.2a2.53,2.53,0,0,0-2.45,2.45v3.52a2.36,2.36,0,0,0,.74,1.72,2.39,2.39,0,0,0,1.73.74h2.83a1.35,1.35,0,0,0,1.07-.49,1.59,1.59,0,0,0,.37-.76H113a.74.74,0,0,1-.46-.24.81.81,0,0,1-.25-.58V19.36A.81.81,0,0,1,112.52,18.77Z" transform="translate(0 0.37)" style="fill:#595757"/><path d="M90.59,17.28H88.22a1.35,1.35,0,0,0-1.07.49,1.69,1.69,0,0,0-.38.76h2.54V24h0A1.82,1.82,0,0,0,90,25.2a3.29,3.29,0,0,0,2,.51c0-.08,0-.2,0-.36s0-.35,0-.6,0-.58,0-1V18.55h1A1.35,1.35,0,0,0,94,18.06a1.59,1.59,0,0,0,.37-.76l-3.74,0Z" transform="translate(0 0.37)" style="fill:#595757"/><path d="M146.78,17.29h-3.51a2.49,2.49,0,0,0-2.46,2.45v3.51a2.51,2.51,0,0,0,2.44,2.45h3.5a2.32,2.32,0,0,0,1.72-.74,2.35,2.35,0,0,0,.73-1.72V19.73a2.34,2.34,0,0,0-.73-1.71A2.26,2.26,0,0,0,146.78,17.29Zm-.08,6.33a.79.79,0,0,1-.25.58.75.75,0,0,1-.57.25h-1.72a.79.79,0,0,1-.58-.25.77.77,0,0,1-.25-.58V19.36a.82.82,0,0,1,.82-.82h1.72a.75.75,0,0,1,.57.25.79.79,0,0,1,.25.57v4.26Z" transform="translate(0 0.37)" style="fill:#595757"/><path d="M168.23,18a2.36,2.36,0,0,0-1.72-.74h-5.95v6.43h0a1.91,1.91,0,0,0,.63,1.51,3.31,3.31,0,0,0,2,.51c0-.08,0-.2,0-.36s0-.34,0-.6,0-.58,0-1v-.33h3.45A2.51,2.51,0,0,0,169,21v-1.3A2.34,2.34,0,0,0,168.23,18Zm-1.79,3.37a.82.82,0,0,1-.24.58.75.75,0,0,1-.57.25h-2.55V18.55h2.55a.75.75,0,0,1,.57.25,1,1,0,0,1,.24.68Z" transform="translate(0 0.37)" style="fill:#595757"/><path d="M139.2,24.59l-.26-.29-1.72-1.93a2.52,2.52,0,0,0,1.79-.72,2.32,2.32,0,0,0,.75-1.74v-.14a2.37,2.37,0,0,0-.74-1.72,2.34,2.34,0,0,0-1.73-.74h-6v6.24h0a2,2,0,0,0,.66,1.7,3.29,3.29,0,0,0,2,.51c0-.08,0-.2,0-.36s0-.34,0-.6,0-.58,0-1V22.37h.85l.67.75h0c.44.51.83.92,1.12,1.26l.05.06.15.17h0a6.31,6.31,0,0,0,.59.58,3,3,0,0,0,.71.45,2.53,2.53,0,0,0,.73.19,1.38,1.38,0,0,0,.5,0,2.58,2.58,0,0,0,.4-.1,3.21,3.21,0,0,0,.54-.22,4.58,4.58,0,0,1-.47-.43C139.53,24.92,139.33,24.75,139.2,24.59Zm-5.37-3.49V18.56h2.56a.82.82,0,0,1,.58.24,2.12,2.12,0,0,1,.25,1,2.3,2.3,0,0,1-.24,1,.73.73,0,0,1-.58.26Z" transform="translate(0 0.37)" style="fill:#595757"/><path d="M156.36,18.92v5.53h-2.55a.85.85,0,0,1-.83-.83V18.7c0-.3,0-.55,0-.74s0-.34,0-.45,0-.21,0-.27a4,4,0,0,0-1.92.38,1.41,1.41,0,0,0-.71,1.28v4.33a2.53,2.53,0,0,0,2.46,2.46h5.32a.82.82,0,0,0,.49-.2.74.74,0,0,0,.18-.45V18.68c0-.3,0-.55,0-.74a4.36,4.36,0,0,1,0-.45c0-.12,0-.21,0-.27a4,4,0,0,0-1.92.38A1.51,1.51,0,0,0,156.36,18.92Z" transform="translate(0 0.37)" style="fill:#595757"/><path d="M128.49,18.55a1.33,1.33,0,0,0,1.07-.5,1.59,1.59,0,0,0,.37-.76h-6a2.51,2.51,0,0,0-2.45,2.44v3.51A2.53,2.53,0,0,0,124,25.7h3.49a2.49,2.49,0,0,0,2.45-2.45V20.87h-3.1a1.35,1.35,0,0,0-1.07.49,1.69,1.69,0,0,0-.38.76h2v1.5a.79.79,0,0,1-.25.58.75.75,0,0,1-.57.25h-1.72a.75.75,0,0,1-.57-.25.77.77,0,0,1-.25-.58V19.36a.75.75,0,0,1,.25-.57.81.81,0,0,1,.57-.25h3.65Z" transform="translate(0 0.37)" style="fill:#595757"/><path d="M59.25,5.25h-3V4a3.71,3.71,0,0,1,.36-1.63,1.34,1.34,0,0,1,.85-.51H62a2,2,0,0,0,1.56-.72c.37-.44.22-.47.55-1.12h-8a3.46,3.46,0,0,0-2.51,1.08,3.44,3.44,0,0,0-1.09,2.5V9.1a2.94,2.94,0,0,0,1,2.48,4.84,4.84,0,0,0,2.86.74c0-.12,0-.29-.06-.52s0-.5,0-.87,0-.84,0-2V7.09H62a2,2,0,0,0,1.56-.71c.37-.44.22-.42.55-1.14H59.25Z" transform="translate(0 0.37)" style="fill:#595757"/><path d="M92.17,10.65l-.39-.44L89.27,7.4a3.63,3.63,0,0,0,2.6-1.05A3.4,3.4,0,0,0,93,3.81V3.6a3.47,3.47,0,0,0-1.08-2.52A3.42,3.42,0,0,0,89.38,0H80.64V9.1h0a2.94,2.94,0,0,0,1,2.48,4.84,4.84,0,0,0,2.86.74c0-.12,0-.29-.06-.52s0-.5,0-.87,0-.84,0-1.42V7.4h1.23l1,1.09h0c.64.75,1.21,1.34,1.64,1.83a10,10,0,0,0,1.17,1.18,4,4,0,0,0,1,.65,3.74,3.74,0,0,0,1.07.27,2.21,2.21,0,0,0,.73,0,3.61,3.61,0,0,0,.59-.15,4.57,4.57,0,0,0,.78-.33,6.43,6.43,0,0,1-.69-.62C92.67,11.14,92.37,10.88,92.17,10.65ZM84.34,5.56V1.84h3.74a1.15,1.15,0,0,1,.84.36,3,3,0,0,1,.36,1.46,3.32,3.32,0,0,1-.35,1.51,1.08,1.08,0,0,1-.85.38H84.34Z" transform="translate(0 0.37)" style="fill:#595757"/><path d="M121.75,10.73l-.17-.19-4.24-5,.33-.43,4.5-4.79A4.64,4.64,0,0,0,116.82,2C116,2.89,115,4,114,4.93h-.56V2.13c0-.44,0-.8,0-1.07s0-.5,0-.66a4,4,0,0,1,.06-.4,5.67,5.67,0,0,0-2.8.56,2.07,2.07,0,0,0-1,1.87V9.31h0a2.86,2.86,0,0,0,1,2.28,4.84,4.84,0,0,0,2.86.74c0-.12,0-.29-.06-.52s0-.5,0-.87,0-.84,0-1.42v-.2h0V7.4h1.63l3,3.35s.26.3.64.69a2.91,2.91,0,0,0,1,.65,3.89,3.89,0,0,0,1.08.27,3.07,3.07,0,0,0,.86,0A4.27,4.27,0,0,0,123,11.9a4.54,4.54,0,0,1-.65-.54C122.16,11.19,122,11,121.75,10.73Z" transform="translate(0 0.37)" style="fill:#595757"/><path d="M74.5,2.43V10.5H70.77a1.19,1.19,0,0,1-.85-.36,1.15,1.15,0,0,1-.36-.84V2.13c0-.44,0-.8,0-1.07s0-.5,0-.66a4,4,0,0,1,.06-.4,5.67,5.67,0,0,0-2.8.56,2.07,2.07,0,0,0-1,1.87V8.75a3.45,3.45,0,0,0,1.08,2.51,3.45,3.45,0,0,0,2.51,1.08h7.77a1.22,1.22,0,0,0,.72-.3,1.07,1.07,0,0,0,.26-.65V2.13c0-.44,0-.8,0-1.07s0-.5,0-.66a4,4,0,0,1,.06-.4,5.67,5.67,0,0,0-2.8.56A2.07,2.07,0,0,0,74.5,2.43Z" transform="translate(0 0.37)" style="fill:#595757"/><path d="M103.41,2.43V10.5H99.68a1.25,1.25,0,0,1-1.21-1.2V2.13c0-.44,0-.8,0-1.07s0-.5,0-.66A4,4,0,0,1,98.6,0a5.6,5.6,0,0,0-2.79.56,2.07,2.07,0,0,0-1,1.87V8.75a3.45,3.45,0,0,0,1.08,2.51,3.45,3.45,0,0,0,2.51,1.08h7.77a1.2,1.2,0,0,0,.72-.3,1.07,1.07,0,0,0,.26-.65V2.13c0-.44,0-.8,0-1.07s0-.5,0-.66a4,4,0,0,1,.06-.4,5.67,5.67,0,0,0-2.8.56A2.06,2.06,0,0,0,103.41,2.43Z" transform="translate(0 0.37)" style="fill:#595757"/><path d="M151.56,2.21V9.3a1.2,1.2,0,0,1-.33.84,1,1,0,0,1-.77.36h-2.29V1.63s0-1-.68-1h-1.93c-.78,0-.78,1.06-.78,1.06V10.5h-2.29a1,1,0,0,1-.77-.36,1.2,1.2,0,0,1-.33-.84V2.21a2.08,2.08,0,0,0-.93-1.87,4.83,4.83,0,0,0-2.57-.56,2.51,2.51,0,0,1,.05.39c0,.16,0,.38,0,.66s0,.63,0,1.07V8.75a3.61,3.61,0,0,0,1,2.51,3,3,0,0,0,2.3,1.08h10.38A3,3,0,0,0,154,11.26a3.6,3.6,0,0,0,1-2.51V1.9c0-.44,0-.8,0-1.07s0-.5,0-.66,0-.31,0-.39a4.83,4.83,0,0,0-2.57.56A2.1,2.1,0,0,0,151.56,2.21Z" transform="translate(0 0.37)" style="fill:#595757"/><path d="M136.15,11c0-.37,0-1.06,0-1.64V3.6a3.45,3.45,0,0,0-1.08-2.52A3.45,3.45,0,0,0,132.55,0h-5.12a3.48,3.48,0,0,0-2.54,1.08,3.45,3.45,0,0,0-1.08,2.52V9.54h0c0,.55,0,1.16,0,1.5s0,.66,0,.87,0,.41-.06.52a4.71,4.71,0,0,0,2.82-.74,2.79,2.79,0,0,0,1-2.16h0V8.74h4.94V9.4h0a2.86,2.86,0,0,0,.95,2.29,4.71,4.71,0,0,0,2.82.74c0-.11,0-.29-.06-.52S136.16,11.41,136.15,11ZM127.51,6.9V3a1.12,1.12,0,0,1,.36-.84,1.15,1.15,0,0,1,.85-.35h2.53a1.15,1.15,0,0,1,.84.36,1.15,1.15,0,0,1,.36.84V6.9Z" transform="translate(0 0.37)" style="fill:#595757"/><path d="M168.94,11.91c0-.21,0-.5,0-.87s0-1.06,0-1.64V3.6a3.45,3.45,0,0,0-1.08-2.52A3.46,3.46,0,0,0,165.32,0H160.2a3.48,3.48,0,0,0-2.54,1.08,3.45,3.45,0,0,0-1.08,2.52V9.54h0c0,.55,0,1.16,0,1.5s0,.66,0,.87,0,.41-.06.52a4.71,4.71,0,0,0,2.82-.74,2.79,2.79,0,0,0,.95-2.16h0V8.74h4.94V9.4h0a2.83,2.83,0,0,0,.95,2.29,4.68,4.68,0,0,0,2.82.74A3.45,3.45,0,0,1,168.94,11.91Zm-8.65-5V3a1.12,1.12,0,0,1,.36-.84,1.15,1.15,0,0,1,.85-.35H164a1.15,1.15,0,0,1,.84.36,1.15,1.15,0,0,1,.36.84V6.9Z" transform="translate(0 0.37)" style="fill:#595757"/><polygon points="24.76 0 0 19.46 10.02 19.46 24.76 4.97 39.5 19.46 49.52 19.46 24.76 0" style="fill:#c00"/><path d="M37.56,19.25,35.69,17.5l-3,1.59H16.83l-3-1.59L12,19.25c-.69.7-.24,1.93,0,2.57s.59,1.55,1.18,2.83a1.83,1.83,0,0,0,2.73.75,29.85,29.85,0,0,1,8.84-1.6,29.85,29.85,0,0,1,8.84,1.6,1.83,1.83,0,0,0,2.73-.75c.59-1.28.89-2.18,1.18-2.83S38.25,20,37.56,19.25Z" transform="translate(0 0.37)" style="fill:#c00"/></svg>