<svg id="Camada_1" data-name="Camada 1" xmlns="http://www.w3.org/2000/svg" viewBox="0 0 622.07 119.76"><title>intelbras-logo</title><path d="M602.58,135.73V136a22,22,0,1,1,0-.23ZM579.79,90.14a45.59,45.59,0,1,0,22.8,85.06v6.12h22.8V135.73A45.6,45.6,0,0,0,579.79,90.14Z" transform="translate(-82.38 -61.56)" style="fill:#009d39;fill-rule:evenodd"/><path d="M251.72,156.8a17.71,17.71,0,0,1-25.34-16h0V112.94h17.25a92.29,92.29,0,0,0,2.86-22.79H226.39V63.48a79.47,79.47,0,0,0-22.8,3.37V90.14h0V140.8A40.51,40.51,0,0,0,265,175.49,53.47,53.47,0,0,1,251.72,156.8Z" transform="translate(-82.38 -61.56)" style="fill:#009d39;fill-rule:evenodd"/><path d="M544,96a40.51,40.51,0,0,0-61.45,34.69v50.66h22.8V130.66h0a17.71,17.71,0,0,1,25.34-16A53.45,53.45,0,0,1,544,96Z" transform="translate(-82.38 -61.56)" style="fill:#009d39;fill-rule:evenodd"/><path d="M94.84,61.56A12.46,12.46,0,1,0,107.3,74,12.46,12.46,0,0,0,94.84,61.56Z" transform="translate(-82.38 -61.56)" style="fill:#009d39;fill-rule:evenodd"/><path d="M155.36,90.14a40.52,40.52,0,0,0-40.52,40.52v50.66h22.79V130.66a17.73,17.73,0,1,1,35.46,0v50.66h22.79V130.66A40.52,40.52,0,0,0,155.36,90.14Z" transform="translate(-82.38 -61.56)" style="fill:#009d39;fill-rule:evenodd"/><path d="M83.44,181.32h22.8V90.14a79.47,79.47,0,0,0-22.8,3.37Z" transform="translate(-82.38 -61.56)" style="fill:#009d39;fill-rule:evenodd"/><path d="M352,181.32h22.79V63.48A79.38,79.38,0,0,0,352,66.84Z" transform="translate(-82.38 -61.56)" style="fill:#009d39;fill-rule:evenodd"/><path d="M429.62,158.52a22.79,22.79,0,0,1-22.8-22.79h0v-.17a22.79,22.79,0,1,1,22.79,23Zm0-68.38a45.33,45.33,0,0,0-22.79,6.11V63.48A79.56,79.56,0,0,0,384,66.84s0,68.84,0,68.89a45.59,45.59,0,1,0,45.59-45.59Z" transform="translate(-82.38 -61.56)" style="fill:#009d39;fill-rule:evenodd"/><path d="M278.39,132.78a22.8,22.8,0,0,1,32.82-17.42l-32.55,25a22.65,22.65,0,0,1-.27-7.55Zm66.71,13.75a72.92,72.92,0,0,0-22-5,22.82,22.82,0,0,1-32.27,14.63l51.56-39.57a45.58,45.58,0,1,0-47.3,64.36c23.06,3,44.36-12.46,50.05-34.41Z" transform="translate(-82.38 -61.56)" style="fill:#009d39;fill-rule:evenodd"/><path d="M676.73,125.88h-15a6.47,6.47,0,0,1,0-12.94h32.75a79,79,0,0,0,3.36-22.7H660.19a27.73,27.73,0,0,0,0,55.45h15a6.47,6.47,0,0,1,0,12.94H638a78.61,78.61,0,0,0-3.36,22.7h42.05a27.72,27.72,0,1,0,0-55.44Z" transform="translate(-82.38 -61.56)" style="fill:#009d39;fill-rule:evenodd"/></svg>