<svg id="svg2628" xmlns="http://www.w3.org/2000/svg" viewBox="0 0 1009.77 219.81"><title>kaspersky-lab-seeklogo</title><path id="path2524" d="M893.29,181.38l-18.11-36.24L857,181.38ZM487.13,94.66l-36.24,18.11,36.24,18.13ZM159.76,135.53l18.12,36.23L196,135.53ZM988.55,58.34A11.74,11.74,0,0,0,976.61,70c0,7.51,6.06,11.76,11.94,11.76,6.57,0,12.21-4.41,12.21-11.51,0-7.25-5.89-11.86-12.13-11.86Zm-49.92,37V81.22h30.12c-5.37-5-5.37-11.78-5.37-13.75,0-9.89,7.09-23.29,25-23.29,17.06,0,25.6,11.85,25.6,23.89,0,6.66-3.24,11.79-6.66,13.74h5V95.38Zm50.27,47.53c4.34,0,11.86-3.24,11.86-11.78a11,11,0,0,0-5.29-9.91,13.11,13.11,0,0,0-6.07-2,12.37,12.37,0,0,0-6.22,1.19,11.25,11.25,0,0,0-6.57,10.77c0,8.11,6.82,11.69,12.19,11.69Zm23.46-37.82v14.17h-5.13c4.64,2.56,6.76,8.45,6.76,14,0,15-11.78,23.82-25.36,23.82-15.53,0-25.25-11.18-25.25-23.82,0-7.76,3.75-12.12,6.65-14h-5V105.09Zm-73.73,76.29V167.21h73.73v14.17H938.63" transform="translate(-4.22 -3.7)" style="fill:#d52b1e"/><path id="path2526" d="M632.18,200.54l10.57,23c50.2-38.39,59.44-81.27,26.76-127.22-25.88-36.42,2.61-68.8,11.18-77.21L661.48,3.7C648.92,17.48,616,60.55,644.78,103.87,672.7,145.82,669.8,168.57,632.18,200.54Zm-390,0,10.58,23c50.19-38.39,59.43-81.27,26.75-127.22-25.87-36.42,2.6-68.8,11.18-77.21L271.51,3.7C259,17.48,226,60.55,254.83,103.87,282.73,145.82,279.84,168.57,242.21,200.54ZM907,44.18,875.18,99.24,843.37,44.18H817.5l57.68,99.9,57.67-99.9ZM388.57,52c-9.07-5.32-20.16-7.78-34.94-7.78H321.24v137.2h25.89V70.06h6.5c17.93,0,30.22,4.42,30.22,20.53,0,15-14.81,21.63-32,22.16l-3.73,0h0l17.2,24.57a64.49,64.49,0,0,0,22.52-8.17l1.4-.94a44.42,44.42,0,0,0,20.46-37.64C409.74,73.69,402.21,60,388.57,52Zm205,76.27A44.43,44.43,0,0,0,614,90.59C614,73.69,606.45,60,592.79,52c-9-5.32-20.15-7.78-34.92-7.78H525.48v137.2h25.89V70.06h6.5c17.92,0,30.22,4.42,30.22,20.53,0,15-14.8,21.63-32,22.16l-3.72,0h0l48,68.61h30.29Zm174.89-15.46,48-68.59H786.15l-48,68.59,48,68.61h30.31ZM737.1,44.18H711.21v137.2H737.1ZM61.44,112.77l48-68.59H79.19l-48,68.59,48,68.61h30.29ZM30.12,44.18H4.22v137.2h25.9Zm475.4,25.88V44.18H424v137.2h81.53V155.5H449.86V70.06ZM244.32,181.38h-25.9L177.88,94.44l-40.53,86.94h-25.9L177.88,38.92l66.44,142.46" transform="translate(-4.22 -3.7)" style="fill:#006d55"/></svg>