<svg id="Layer_1" data-name="Layer 1" xmlns="http://www.w3.org/2000/svg" viewBox="0 0 2083.87 445"><title>microsoft-logo</title><path d="M236.52,0H448.21q0,105.84,0,211.69H236.52V0Z" transform="translate(-236.52 0)" style="fill:#f25022"/><path d="M448.21,0h21.62q0,105.84,0,211.69H681.51q0-105.84,0-211.69H2320.39V164.63c-15.1.05-30.21-.11-45.3.11-.34-19.11,0-38.22-.16-57.32-15.11,4.55-30.12,9.4-45.31,13.72-.36,14.49,0,29-.19,43.49-22.32,0-44.65,0-67,0,.28-11.42-.79-22.93.85-34.28,1.36-9,6.55-17.9,15.27-21.36,11-4.51,23.29-1.51,33.74,3.09-.06-13.08.1-26.17-.09-39.24-22-6-47.21-4.87-66.72,7.84a62.45,62.45,0,0,0-25.83,35.24c-4.85,15.83-2.37,32.55-3.15,48.8-10.59-.08-21.17-.18-31.73.06.11,12.23.06,24.46,0,36.68,10.62.22,21.25,0,31.86.17q-.13,77.19,0,154.39h45.78q0-77.22,0-154.44,33.48-.06,67,0c.06,32.82-.06,65.62.05,98.42.2,15.29,2.81,31.63,12.93,43.69,8.76,10.68,22.67,15.56,36.1,16.56,14.15,1,28.77-.73,41.85-6.41V445H681.52V233.3q-105.84,0-211.68,0,0,105.82,0,211.68H448.21q0-105.86,0-211.68-105.84-.06-211.69,0v-21.6H448.2q0-105.84,0-211.69Z" transform="translate(-236.52 0)" style="fill:#fefefe"/><path d="M469.83,0H681.52q0,105.84,0,211.69H469.84q0-105.84,0-211.69Z" transform="translate(-236.52 0)" style="fill:#80ba01"/><path d="M2145.51,80.66c19.51-12.71,44.73-13.89,66.72-7.84.19,13.07,0,26.16.09,39.24-10.45-4.6-22.75-7.6-33.74-3.09-8.72,3.46-13.91,12.41-15.27,21.36-1.64,11.35-.57,22.86-.85,34.28,22.32,0,44.65,0,67,0,.17-14.49-.17-29,.19-43.49,15.19-4.32,30.2-9.17,45.31-13.72.12,19.1-.18,38.21.16,57.32,15.09-.22,30.2-.06,45.3-.11v37.18c-15.15-.62-30.32-.16-45.48-.22.07,21.38,0,42.75,0,64.14.24,11.83-.64,23.73.75,35.53.84,7,3.37,14.66,9.89,18.26,10.92,6.12,24.78,3.45,34.81-3.27V353.8c-13.08,5.68-27.7,7.41-41.85,6.41-13.43-1-27.34-5.88-36.1-16.56-10.12-12.06-12.73-28.4-12.93-43.69-.11-32.8,0-65.6-.05-98.42q-33.51,0-67,0,0,77.22,0,154.44h-45.78q0-77.21,0-154.39c-10.61-.21-21.24,0-31.86-.17,0-12.22.09-24.45,0-36.68,10.56-.24,21.14-.14,31.73-.06.78-16.25-1.7-33,3.15-48.8a62.45,62.45,0,0,1,25.83-35.24Z" transform="translate(-236.52 0)" style="fill:#777"/><path d="M1165.26,83.33c9.23-1.4,19.23,1.75,25.34,9a26.11,26.11,0,0,1,3.18,29.74c-5.87,10.43-19,15.27-30.48,12.77-11.88-2.14-21.79-13.19-21.25-25.51-.35-13,10.5-24.52,23.21-26Z" transform="translate(-236.52 0)" style="fill:#777"/><path d="M814.39,89H881q31.08,78.93,62.35,157.82c5.3,13.16,10.26,26.47,15.82,39.53,26.66-65.76,53.7-131.35,80.16-197.2,21.35-.34,42.71-.08,64.07-.13q-.07,133.49,0,267c-15.41,0-30.81.13-46.21-.08.17-65.67,0-131.34.08-197,0-3-.08-5.89-.28-8.84a33.8,33.8,0,0,0-2.4,4.27c-26.46,67.22-53.43,134.25-79.74,201.53-11,.4-21.93,0-32.9.2-27.3-67.22-54.25-134.59-81.41-201.86q-1.07-2.1-2.3-4.07c-.56,28.77-.09,57.57-.24,86.34q0,59.78,0,119.54c-14.53,0-29.07,0-43.58,0q0-133.5,0-267Z" transform="translate(-236.52 0)" style="fill:#777"/><path d="M1291.26,164.46a125.3,125.3,0,0,1,68,.2,55.09,55.09,0,0,1,13.06,5.44c-.26,14.58,0,29.18-.14,43.78-14.77-11.28-33.49-18.43-52.26-16.06a53.77,53.77,0,0,0-38,21.12c-11.45,14.92-14.1,34.74-12.13,53,1.48,14.29,7.39,28.57,18.5,38,11.55,10.26,27.73,13.9,42.84,12.76,14.92-1.72,29-8,41.08-16.86.12,13.82-.07,27.64.1,41.46-18.72,11.14-41.16,14-62.58,13-21.92-1.15-43.78-9.46-59.64-24.86-17.25-16.62-26.6-40.32-27.71-64.06-1.12-24.68,3.9-50.42,18.11-71,11.9-17.59,30.51-30,50.79-35.88Z" transform="translate(-236.52 0)" style="fill:#777"/><path d="M1601.45,161.16c22-2.79,45.15-1.55,65.54,7.73a81,81,0,0,1,40,40.42c8.48,18.82,10.54,39.95,9.1,60.36-1.41,19.92-7.66,39.88-20.12,55.71-12.76,16.81-32,28.2-52.57,32.43a131.32,131.32,0,0,1-53.6-.05c-21-4.5-40.54-16.72-52.89-34.49-14.49-20.6-18.61-46.79-16.77-71.47,1.25-20.94,7.76-42,21.13-58.47,14.65-18.4,37.11-29.26,60.19-32.17Z" transform="translate(-236.52 0)" style="fill:#777"/><path d="M1791.38,161.54c21.17-3.72,43.33-1,63.36,6.6,0,14,0,28.06,0,42.09a80.63,80.63,0,0,0-48.09-14.2c-8.56.33-18,3.95-21.87,12.09-3.1,8-1,18.6,6.64,23.42,13,8.68,28.47,12.37,41.92,20.15,10.59,5.95,20.86,13.73,26.23,24.94,10.08,21,5.81,48.76-11.91,64.43-16.93,15.81-41.3,20.19-63.72,19.35-15.91-1-31.91-4.17-46.54-10.68.06-14.76-.09-29.51.07-44.26A100.2,100.2,0,0,0,1779,323.4c10.46,1.7,21.84,1.78,31.6-2.9,9.33-4.64,11-17.9,5.46-26-5.18-6.26-12.8-9.71-20-13.09-13.49-6.06-27.67-11.14-39.52-20.23a47.35,47.35,0,0,1-17.1-26c-3.66-15.22-2.52-32.37,6.33-45.67,10.11-15.5,27.67-24.79,45.56-28Z" transform="translate(-236.52 0)" style="fill:#777"/><path d="M1966.36,161.1c22.85-2.84,47.11-1.3,68,9.23,18.18,9.09,32.28,25.52,39.33,44.51,5.5,14.54,7.43,30.22,7.12,45.7,0,23.11-6.21,46.84-20.72,65.17-13.57,17.75-34.35,29.28-56.28,32.91-21.45,3.47-44.11,2.56-64.49-5.46A84.83,84.83,0,0,1,1892.77,308c-9.06-20.81-10-44.23-7.19-66.47s13-44,30.19-58.77c14.06-12.34,32.17-19.34,50.59-21.7Z" transform="translate(-236.52 0)" style="fill:#777"/><path d="M1474.7,167.57c12.64-7.59,28.7-8.23,42.49-3.58-.06,15.27,0,30.54,0,45.81a48.64,48.64,0,0,0-30.94-7.28c-13,1.48-23.29,11.46-28.63,22.9-5.8,12.12-6.9,25.82-6.53,39.07q0,45.75,0,91.51h-45.13q-.06-95.62,0-191.26c15.07-.19,30.13-.12,45.2,0-.07,10.94,0,21.89,0,32.85,4.9-11.91,12.18-23.48,23.66-30Z" transform="translate(-236.52 0)" style="fill:#777"/><path d="M1146.2,164.7c15.18-.07,30.38-.22,45.56.07-.18,63.74,0,127.49-.08,191.23h-45.45q-.06-95.65,0-191.3Z" transform="translate(-236.52 0)" style="fill:#777"/><path d="M1615.11,197.5c13.75-.9,28.4,3,38.29,13,10.58,10.4,14.67,25.5,15.8,39.89.82,15.75.17,32.17-6.44,46.76-4.38,9.84-12.39,18.16-22.49,22.1-11.83,4.54-25.11,4.81-37.32,1.64a45.72,45.72,0,0,1-28.7-23.67c-7.37-14.73-8.48-31.75-7-47.9,1.39-14.68,6.5-29.79,17.69-39.92,8.11-7.58,19.17-11.28,30.12-11.89Z" transform="translate(-236.52 0)" style="fill:#fefefe"/><path d="M1978.72,197.54c12.93-.9,26.74,2.08,36.68,10.82,9.17,7.6,14.24,19,16.57,30.46a116.3,116.3,0,0,1,.38,40.89c-1.75,10.07-5.24,20.12-11.84,28.09s-16.54,12.89-26.75,14.39c-11,1.64-22.5.85-32.75-3.56-11.06-4.68-19.63-14.25-24.14-25.26-5.43-13.12-6.51-27.66-5.43-41.69,1-13.6,4.89-27.54,13.87-38.11,8.19-9.86,20.75-15.32,33.41-16Z" transform="translate(-236.52 0)" style="fill:#fefefe"/><path d="M236.52,233.29q105.85,0,211.69,0,0,105.84,0,211.68H236.52V233.29Z" transform="translate(-236.52 0)" style="fill:#02a4ef"/><path d="M469.84,233.32q105.82,0,211.68,0V445H469.83q0-105.86,0-211.68Z" transform="translate(-236.52 0)" style="fill:#ffb902"/></svg>