<svg id="Layer_1" data-name="Layer 1" xmlns="http://www.w3.org/2000/svg" viewBox="0 0 208.92 66.82"><title>office</title><path d="M133.21,54.45q-8.48,0-13.56-5.57t-5.09-14.51q0-9.6,5.19-15.32t14.12-5.71q8.24,0,13.28,5.55t5,14.51q0,9.74-5.16,15.39T133.21,54.45Zm.33-36.89a12.82,12.82,0,0,0-10.18,4.52Q119.45,26.6,119.45,34t3.81,11.83a12.42,12.42,0,0,0,10,4.48q6.54,0,10.31-4.27t3.78-12q0-7.88-3.66-12.17t-10.11-4.26Z" transform="translate(-39.54)" style="fill:#e83f24"/><path d="M184.48,15a5.94,5.94,0,0,1,3,.75V11.62a9,9,0,0,0-3.3-.5,8.74,8.74,0,0,0-6.43,2.59,9.54,9.54,0,0,0-2.58,7.06v4.61H163.8V21q0-6,4.77-6a5.94,5.94,0,0,1,3,.75V11.64a9,9,0,0,0-3.3-.5,8.74,8.74,0,0,0-6.43,2.59,9.54,9.54,0,0,0-2.58,7.06V25.4H154.4v3.88h4.86V53.81h4.52V29.26h11.43V53.79h4.52V29.26h6.65V25.38h-6.67V21C179.71,17,181.3,15,184.48,15Z" transform="translate(-39.54)" style="fill:#e83f24"/><path d="M193,18.17a2.88,2.88,0,0,1-2.08-.84,2.76,2.76,0,0,1-.86-2.1,2.9,2.9,0,0,1,2.8-3H193a2.94,2.94,0,0,1,2.12.84,2.89,2.89,0,0,1,.87,2.13,2.82,2.82,0,0,1-.87,2.08A2.93,2.93,0,0,1,193,18.17Zm2.26,35.62h-4.55V25.38h4.55Z" transform="translate(-39.54)" style="fill:#e83f24"/><path d="M220.62,52.51a14.69,14.69,0,0,1-7.77,2,12.86,12.86,0,0,1-9.8-3.95,14.3,14.3,0,0,1-3.73-10.25q0-7,4-11.28t10.74-4.26a15,15,0,0,1,6.6,1.39v4.66a11.58,11.58,0,0,0-6.75-2.31,9.16,9.16,0,0,0-7.15,3.12,11.89,11.89,0,0,0-2.78,8.2,11.26,11.26,0,0,0,2.62,7.88,9,9,0,0,0,7,2.88,11.41,11.41,0,0,0,7-2.47Z" transform="translate(-39.54)" style="fill:#e83f24"/><path d="M248.46,40.72H228.4c.07,3.16.93,5.6,2.55,7.32a8.78,8.78,0,0,0,6.72,2.58,14,14,0,0,0,8.82-3.16v4.27q-3.75,2.73-9.91,2.72t-9.46-3.87q-3.44-3.87-3.44-10.89a15.56,15.56,0,0,1,3.76-10.8,12.07,12.07,0,0,1,9.34-4.18q5.58,0,8.63,3.61t3.05,10Zm-4.66-3.86a9.33,9.33,0,0,0-1.9-6.13,6.46,6.46,0,0,0-5.21-2.19,7.37,7.37,0,0,0-5.46,2.3,10.44,10.44,0,0,0-2.77,6Z" transform="translate(-39.54)" style="fill:#e83f24"/><polygon points="0 53.96 35.95 66.82 55.88 60.39 55.88 6.71 35.95 0 0 13.87 0 53.96" style="fill:#e83f24"/><polygon points="0 53.97 12.88 48.6 12.88 17.02 36.17 11.65 36.17 58.68 0 53.97" style="fill:#fff"/></svg>