<svg id="Layer_1" data-name="Layer 1" xmlns="http://www.w3.org/2000/svg" viewBox="0 0 2500 358.6"><title>windows-server-seeklogo</title><path d="M148.9,172.5V29.5L0,50.6V172.5Zm14,0H358.6V.2L162.9,28.3Zm-14,14H0V309.6l148.9,19.9Zm14,0V331.8l195.7,27V186.5Z" transform="translate(0 -0.2)" style="fill:#303035"/><path d="M1837.8,233.4c0,17.6-5.9,32.8-18.8,42.2-12.9,10.6-30.5,15.2-52.7,15.2a116.39,116.39,0,0,1-27-3.5c-10.5-2.3-17.6-5.9-21.1-8.2V249.8c5.9,5.9,14.1,10.5,24.6,14.1s18.7,5.9,28.1,5.9c28.1,0,41-10.5,41-32.8,0-9.4-3.5-16.4-9.4-23.4s-17.6-15.2-36.3-25.8c-17.6-10.6-30.5-19.9-37.5-28.1-7-9.4-10.6-19.9-10.6-32.8,0-16.4,5.9-30.5,18.8-41s29.3-16.4,49.2-16.4c18.8,0,32.8,2.3,42.2,8.2v28.1c-11.7-9.4-25.8-12.9-43.4-12.9a48.39,48.39,0,0,0-29.3,9.4c-7,5.9-11.7,14.1-11.7,23.4,0,7,1.2,12.9,3.5,17.6s5.9,8.2,11.7,12.9,14.1,9.4,27,16.4c18.8,10.5,32.8,21.1,39.8,30.5,8.4,6.9,11.9,18.6,11.9,30.3ZM1991.3,217h-109c0,17.6,4.7,30.5,14.1,39.8,8.2,9.4,21.1,14.1,36.3,14.1,17.6,0,32.8-5.9,48.1-16.4V278c-12.9,9.4-31.6,15.2-53.9,15.2s-38.7-7-51.6-21.1c-11.7-14.1-18.7-34-18.7-58.6a91.38,91.38,0,0,1,9.4-41c5.9-12.9,14.1-22.3,25.8-29.3,10.5-7,22.3-10.5,36.3-10.5,19.9,0,35.2,7,46.9,19.9s16.4,31.6,16.4,53.9l-.1,10.5Zm-24.6-21.1c0-14.1-3.5-25.8-10.5-32.8-7-8.2-16.4-11.7-28.1-11.7s-21.1,4.7-29.3,12.9-12.9,18.8-15.2,32.8h83.2v-1.2Zm132.5-37.5c-4.7-3.5-10.5-4.7-18.7-4.7-10.6,0-19.9,4.7-27,15.2s-10.5,23.4-10.5,39.8v78.5h-24.6V133.8H2043v31.6h1.2c3.5-10.6,8.2-18.8,15.2-24.6s15.2-9.4,24.6-9.4a54.1,54.1,0,0,1,15.2,2.3v24.7Zm154.7-24.6L2193,287.3h-24.6l-58.6-153.5h27l38.7,111.3c2.3,5.9,3.5,12.9,4.7,21.1h1.2c1.2-7,2.3-14.1,4.7-21.1l41-112.5h27l-.2,1.2ZM2392.2,217H2284.4c0,17.6,4.7,30.5,14.1,39.8,8.2,9.4,21.1,14.1,36.3,14.1,17.6,0,32.8-5.9,48.1-16.4V278c-12.9,9.4-31.6,15.2-53.9,15.2s-38.7-7-51.6-21.1c-11.7-14.1-18.8-34-18.8-58.6a91.38,91.38,0,0,1,9.4-41c5.9-12.9,14.1-22.3,25.8-29.3,10.5-7,22.3-10.5,36.3-10.5,19.9,0,35.2,7,46.9,19.9s16.4,31.6,16.4,53.9V217Zm-24.6-21.1c0-14.1-3.5-25.8-10.5-32.8-7-8.2-16.4-11.7-28.1-11.7s-21.1,4.7-29.3,12.9-12.9,18.8-15.2,32.8h83.2v-1.2ZM2500,158.4c-4.7-3.5-10.5-4.7-18.8-4.7-10.5,0-19.9,4.7-27,15.2s-10.6,23.4-10.6,39.8v78.5H2419V133.8h24.6v31.6h1.2c3.5-10.6,8.2-18.8,15.2-24.6s15.2-9.4,24.6-9.4a54.1,54.1,0,0,1,15.2,2.3l.2,24.7Z" transform="translate(0 -0.2)" style="fill:#303035"/><path d="M745.4,72.8,684.5,287.3H655.2L610.7,130.2c-1.2-5.9-2.3-12.9-3.5-22.3H606L602.5,129,558,286.1H528.7L466.5,72.8h27l45.7,165.3a67.62,67.62,0,0,1,3.5,21.1h1.2c0-5.9,2.3-12.9,4.7-21.1L596.7,72.8h24.6L667,239.2c1.2,5.9,2.3,12.9,3.5,19.9,0-4.7,2.3-11.7,3.5-21.1L718.5,72.7l26.9.1Zm49.3,10.6a16.4,16.4,0,1,1-32.8,0A16.55,16.55,0,0,1,790,71.7C792.3,75.2,794.7,78.7,794.7,83.4ZM790,287.3H765.4V133.8H790Zm164.1,0H929.5V199.4q0-49.2-35.2-49.2a39.5,39.5,0,0,0-30.5,14.1c-8.2,9.4-11.7,21.1-11.7,35.2v87.9H827.5V133.8h24.6v25.8h1.2c11.7-19.9,28.1-29.3,50.4-29.3,16.4,0,29.3,5.9,38.7,16.4s12.9,27,12.9,46.9v93.8h-1.2Zm171.1,0h-24.6V261.5h-1.2c-11.7,19.9-29.3,29.3-52.7,29.3-19.9,0-35.2-7-46.9-21.1s-17.6-32.8-17.6-56.3c0-25.8,5.9-45.7,18.8-60.9s29.3-23.4,51.6-23.4q31.65,0,45.7,24.6h1.2V59.9h24.6V287.3Zm-24.6-69.1V195.9a43.18,43.18,0,0,0-12.9-31.6,42.67,42.67,0,0,0-30.5-12.9c-15.2,0-27,5.9-35.2,16.4s-12.9,25.8-12.9,45.7c0,17.6,3.5,31.6,11.7,42.2s18.7,15.2,32.8,15.2,24.6-4.7,32.8-15.2c9.5-9.4,14.2-22.3,14.2-37.5Zm206.2-8.2c0,24.6-7,44.5-21.1,58.6-14.1,15.2-32.8,22.3-56.3,22.3-22.3,0-41-7-53.9-21.1-14.1-14.1-19.9-34-19.9-57.4q0-38.7,21.1-59.8c14.1-15.2,32.8-22.3,57.4-22.3,22.3,0,41,7,53.9,21.1,11.8,14,18.8,34,18.8,58.6Zm-25.7,1.1c0-18.7-4.7-34-12.9-44.5s-21.1-15.2-36.3-15.2a52.51,52.51,0,0,0-37.5,15.2c-9.4,10.6-14.1,25.8-14.1,44.5s4.7,32.8,14.1,43.4,22.3,15.2,37.5,15.2c16.4,0,28.1-4.7,36.3-15.2,9.3-9.4,12.9-24.6,12.9-43.4Zm249.6-77.3L1485,287.3h-25.8l-31.6-110.2a43.05,43.05,0,0,1-2.3-14.1h-1.2c0,3.5-1.2,8.2-3.5,14.1l-34,110.2H1362l-46.9-153.5h25.8l31.6,116c1.2,3.5,1.2,8.2,2.3,14.1h1.2c0-3.5,1.2-8.2,2.3-14.1l35.2-114.9h22.3l31.6,116c1.2,3.5,1.2,8.2,2.3,14.1h1.2c0-4.7,1.2-9.4,2.3-14.1l31.6-116h25.8l.1-1.1ZM1635,246.3c0,12.9-4.7,24.6-15.2,32.8s-23.4,12.9-41,12.9a76.63,76.63,0,0,1-37.5-9.4v-27c11.7,9.4,25.8,15.2,39.9,15.2,19.9,0,29.3-7,29.3-21.1a19.27,19.27,0,0,0-5.9-14.1c-3.5-3.5-12.9-8.2-25.8-15.2-14.1-5.9-23.4-11.7-29.3-18.8s-8.2-15.2-8.2-27c0-12.9,4.7-23.4,15.2-31.6s23.4-12.9,38.7-12.9c11.7,0,23.4,2.3,32.8,7v24.6c-10.5-7-21.1-10.5-35.2-10.5a35.44,35.44,0,0,0-19.9,5.9c-4.7,3.5-7,9.4-7,15.2,0,7,2.3,11.7,5.9,15.2s11.7,8.2,23.4,12.9c14.1,5.9,24.6,12.9,30.5,19.9,7,7.3,9.3,15.5,9.3,26Z" transform="translate(0 -0.2)" style="fill:#303035"/></svg>