<?xml version="1.0" encoding="utf-8"?>
<!-- Generator: Adobe Illustrator 25.0.0, SVG Export Plug-In . SVG Version: 6.00 Build 0)  -->
<svg version="1.1" id="Capa_1" xmlns="http://www.w3.org/2000/svg" xmlns:xlink="http://www.w3.org/1999/xlink" x="0px" y="0px"
	 viewBox="0 0 512 512" style="enable-background:new 0 0 512 512;" xml:space="preserve">
<style type="text/css">
	.st0{fill:none;stroke:#000000;stroke-width:23;stroke-miterlimit:10;}
	.st1{stroke:#000000;stroke-miterlimit:10;}
	.st2{stroke:#000000;stroke-width:6;stroke-miterlimit:10;}
</style>
<path class="st0" d="M127,467.3c92.3-0.6,184.8-1.3,277.1-1.9c18-10.5,45.5-30.1,66.2-63.3c42.8-68.9,45.9-180.1-22.7-241.2
	c-64.5-57.4-156.4-38.1-161.7-36.9c-16.1,3.7-29.1,9-37.8,13.3c-40.2,0.7-78.3,0.6-117.3,0.5"/>
<line class="st0" x1="28.1" y1="192.2" x2="192.9" y2="192.2"/>
<line class="st0" x1="0" y1="243.6" x2="164.8" y2="243.6"/>
<line class="st0" x1="82.2" y1="439.1" x2="241.4" y2="439.1"/>
<circle class="st0" cx="327.2" cy="292.1" r="135"/>
<polyline class="st0" points="401.7,129.9 428.8,103.1 471.2,140.4 451.4,165.7 "/>
<rect x="262.9" y="35.9" class="st0" width="123.9" height="60.1"/>
<path class="st0" d="M17.7,293.6h132.4c0,0,0.6,58.4,24.5,102.9l-114.9-0.2"/>
<path class="st1" d="M429.9,243.6L387.4,275l-16.4-2.5l-6.6-7.9l0.3-18.6l43.2-33.1l-45.4-5l-28,22.7V268
	c-30.3-8.8-32.8,24.1-32.8,24.1l-78.2,57.2l40.1,10.1l52.9-41c32.2,6,39.7-21.8,39.7-21.8l37.8,13.9l37.2-32.1L429.9,243.6z
	 M327.4,307.7c-7.7,0-14.1-6.2-14.1-14.1c0-7.7,6.3-14.1,14.1-14.1c7.7,0,14.1,6.3,14.1,14.1C341.5,301.5,335.1,307.7,327.4,307.7z"
	/>
<path class="st1" d="M337.9,329.2l54.5,54.5c0,0,29,4.4,24-24.3l-53.2-55.1l-10.7,3.5L337.9,321L337.9,329.2L337.9,329.2z"/>
<polyline class="st2" points="346.2,314.3 280.6,250 270.1,257.9 249.7,231.1 261.6,219.9 287.4,238.4 280.6,250 "/>
</svg>
