<?xml version="1.0" encoding="utf-8"?>
<!-- Generator: Adobe Illustrator 25.0.0, SVG Export Plug-In . SVG Version: 6.00 Build 0)  -->
<svg version="1.1" id="Capa_1" xmlns="http://www.w3.org/2000/svg" xmlns:xlink="http://www.w3.org/1999/xlink" x="0px" y="0px"
	 viewBox="0 0 512 512" style="enable-background:new 0 0 512 512;" xml:space="preserve">
<style type="text/css">
	.st0{fill:none;stroke:#000000;stroke-width:23;stroke-miterlimit:10;}
	.st1{fill:none;stroke:#000000;stroke-width:23;stroke-linecap:round;stroke-miterlimit:10;}
	.st2{fill:none;stroke:#000000;stroke-width:18;stroke-miterlimit:10;}
	.st3{fill:none;stroke:#000000;stroke-width:22;stroke-miterlimit:10;}
</style>
<path class="st0" d="M308.6,391.3c2-17,6.8-44.1,21.9-69.2c14.4-24.2,24.8-26.6,34.3-44.8c16-30.7,13.1-74.6-7.5-108.2
	c-25.5-41.4-75.2-62.8-122.7-54.1c-40.5,7.5-73.8,36-88.4,72.1c-1.6,4-16.7,42.9-1.8,83.2c7.2,19.3,15.8,24,30.3,47.7
	c16.8,27.5,25.2,53.8,29.7,73.3L308.6,391.3L308.6,391.3z"/>
<path class="st1" d="M169.4,237.1c0,0-4-86,75.8-91.2"/>
<line class="st2" x1="203.5" y1="415.3" x2="309.1" y2="415.3"/>
<line class="st2" x1="203.5" y1="441.3" x2="309.1" y2="441.3"/>
<line class="st2" x1="203.5" y1="465.2" x2="309.1" y2="465.2"/>
<line class="st3" x1="206.1" y1="487.4" x2="305.2" y2="487.4"/>
<path class="st3" d="M210.7,488.2c6,3.1,27.8,12.9,44.9,12.8c17.8-0.1,38.9-9.6,44.9-12.8"/>
<line class="st1" x1="98.9" y1="394.8" x2="141.6" y2="352.4"/>
<line class="st1" x1="32" y1="240.2" x2="92.2" y2="239"/>
<line class="st1" x1="99.8" y1="73.8" x2="140.3" y2="118.4"/>
<line class="st1" x1="256.3" y1="11.8" x2="256.3" y2="72"/>
<line class="st1" x1="417.2" y1="74.6" x2="374.9" y2="117.6"/>
<line class="st1" x1="479.7" y1="239.2" x2="419.3" y2="238.8"/>
<line class="st1" x1="414.3" y1="395.2" x2="372.4" y2="351.9"/>
</svg>
